<svg width="773" height="637" viewBox="0 0 773 637" fill="none" xmlns="http://www.w3.org/2000/svg">
<path d="M674.556 196.841L464.225 125.802L464.062 125.636L352.941 11.7414L263.826 93.1345L262.524 91.7083L353.018 9.05341L465.284 124.121L673.828 194.557L759.424 76.8017L760.985 77.9361L674.556 196.841Z" fill="#D7D7D7" fill-opacity="0.17"/>
<path d="M10.3944 382.082C16.1351 382.082 20.7889 377.428 20.7889 371.688C20.7889 365.947 16.1351 361.293 10.3944 361.293C4.65375 361.293 0 365.947 0 371.688C0 377.428 4.65375 382.082 10.3944 382.082Z" fill="#D7D7D7" fill-opacity="0.17"/>
<path d="M352.978 20.7927C358.72 20.7927 363.374 16.1381 363.374 10.3964C363.374 4.65461 358.72 0 352.978 0C347.236 0 342.581 4.65461 342.581 10.3964C342.581 16.1381 347.236 20.7927 352.978 20.7927Z" fill="#D7D7D7" fill-opacity="0.17"/>
<path d="M760.204 87.7643C765.946 87.7643 770.601 83.1097 770.601 77.3679C770.601 71.6262 765.946 66.9716 760.204 66.9716C754.462 66.9716 749.808 71.6262 749.808 77.3679C749.808 83.1097 754.462 87.7643 760.204 87.7643Z" fill="#D7D7D7" fill-opacity="0.17"/>
<path d="M761.109 636.383C766.85 636.383 771.505 631.729 771.505 625.987C771.505 620.245 766.85 615.59 761.109 615.59C755.367 615.59 750.712 620.245 750.712 625.987C750.712 631.729 755.367 636.383 761.109 636.383Z" fill="#D7D7D7" fill-opacity="0.17"/>
<path d="M464.754 135.356C470.495 135.356 475.149 130.702 475.149 124.961C475.149 119.22 470.495 114.567 464.754 114.567C459.013 114.567 454.359 119.22 454.359 124.961C454.359 130.702 459.013 135.356 464.754 135.356Z" fill="#D7D7D7" fill-opacity="0.17"/>
<path d="M283.096 626.252L282.292 626.099L21.5735 576.871L21.931 574.971L281.846 624.049L463.846 124.629L465.662 125.292L283.096 626.252Z" fill="#D7D7D7" fill-opacity="0.17"/>
<path d="M123.029 249.734L34.0656 170.966L32.7833 172.414L121.747 251.182L123.029 249.734Z" fill="#D7D7D7" fill-opacity="0.17"/>
<path d="M760.6 626.808L631.699 546.922L634.513 546.149L769.941 415.858L673.308 196.087L675.076 195.311L772.253 416.316L771.768 416.784L636.055 547.347L761.617 625.165L760.6 626.808Z" fill="#D7D7D7" fill-opacity="0.17"/>
<path d="M22.5628 576.446L20.9396 575.396L98.8466 455.057L9.03015 371.74L9.68524 371.032L122.182 249.235L122.851 249.623L635.49 546.18L634.522 547.852L122.551 251.683L11.7587 371.635L101.351 454.744L22.5628 576.446Z" fill="#D7D7D7" fill-opacity="0.17"/>
</svg>
