<svg id="Capa_1" enable-background="new 0 0 512 512" height="512" viewBox="0 0 512 512" width="512" xmlns="http://www.w3.org/2000/svg"><g><path d="m350.444 371.055c-15.698 37.59-52.724 63.175-94.944 63.175-42.376 0-79.18-25.718-94.813-62.877l12.303-9.63c2.022-.271 4.307-.577 6.89-.922v-26.12c44.388 31.854 105.264 32.994 151.24 0v26.11c2.588.345 4.877.65 6.9.92z" fill="#ffccbd"/><path d="m350.44 371.05c-16.354 39.213-56.719 63.869-94.44 63.17v-75.22c26.16-.08 52.45-8.05 75.12-24.32v26.11c2.59.34 4.88.65 6.9.92z" fill="#ffbda9"/><path d="m442.14 375.58c-.077-.01-48.369-6.444-73.85-9.839l-17.845 5.313c-15.454 37.002-52.1 63.176-94.945 63.176-42.25 0-79.158-25.623-94.817-62.876l-17.953-5.573c-66.221 8.891-72.022 9.669-72.91 9.789-22.24 2.98-39.01 22.15-39.01 44.6v76.83c0 8.28 6.71 15 15 15h420.38c8.29 0 15-6.72 15-15v-76.81c0-22.46-16.79-41.64-39.05-44.61z" fill="#6bbde0"/><path d="m481.19 420.19v76.81c0 8.28-6.71 15-15 15h-210.19v-77.78c38.319.71 77.898-23.506 94.44-63.17l17.85-5.31c25.48 3.4 73.77 9.83 73.85 9.84 22.26 2.97 39.05 22.15 39.05 44.61z" fill="#3c9ed4"/><path d="m368.29 365.74c-14.49 48.108-59.308 83.49-112.79 83.49-52.16 0-98.02-34.559-112.77-83.45l30.26-4.06c12.179 33.438 44.836 57.51 82.51 57.51 37.512 0 70.104-23.499 82.52-57.52z" fill="#f2edeb"/><path d="m368.29 365.74c-14.43 47.92-58.96 83.22-112.17 83.48-.04.01-.08.01-.12 0v-30c.04.01.08.01.12 0 37.25-.25 69.55-23.68 81.9-57.51z" fill="#e8e3e2"/><path d="m440.5 196c0 24.81-20.19 45-45 45h-10.55c.961-10.541.375-10.618.55-90h10c24.81 0 45 20.19 45 45z" fill="#ffbda9"/><path d="m126.05 241h-10.55c-24.81 0-45-20.19-45-45s20.19-45 45-45h10c.176 79.851-.408 79.487.55 90z" fill="#ffccbd"/><path d="m174.462 84.692c-29.956-1.762-50.769 11.077-53.94 34.157-.008.576-.022 1.15-.022 1.728v108.423c0 74.439 60.561 135 135 135s135-60.561 135-135v-74.592c-148.654-10.639-184.654-67.87-216.038-69.716z" fill="#ffddce"/><path d="m390.5 154.41v74.59c0 74.23-60.22 134.66-134.38 135h-.12v-239.58c.04.01.08.03.12.05 30.59 13.14 72.83 25.53 134.38 29.94z" fill="#ffccbd"/><path d="m269.923 0h-28.846c-65.909 0-119.627 53.157-120.555 118.849 14.32-25.683 48.041-30.904 72.871-14.052 58.041 39.393 128.154 56.672 197.107 49.61v-33.831c0-66.485-54.091-120.576-120.577-120.576z" fill="#223743"/><path d="m390.5 120.58v33.83c-45.6 4.67-91.71-1.31-134.5-17.29v-137.12h13.92c66.49 0 120.58 54.09 120.58 120.58z" fill="#002a3b"/><path d="m290.607 257.95c-7.59-3.324-16.434.135-19.758 7.723-2.563 5.855-8.346 9.638-14.729 9.638-6.39 0-12.176-3.783-14.741-9.639-3.323-7.588-12.169-11.046-19.758-7.721-7.588 3.324-11.045 12.17-7.721 19.758 7.344 16.767 23.917 27.602 42.22 27.602 18.298 0 34.866-10.835 42.21-27.603 3.323-7.589-.135-16.435-7.723-19.758z" fill="#ffccbd"/><path d="m298.33 277.71c-7.34 16.77-23.91 27.6-42.21 27.6h-.12v-30h.12c6.38 0 12.17-3.78 14.73-9.64 3.32-7.59 12.17-11.04 19.76-7.72s11.04 12.17 7.72 19.76z" fill="#ffbda9"/></g></svg>