<svg width="28" height="28" viewBox="0 0 28 28" fill="none" xmlns="http://www.w3.org/2000/svg">
<path d="M15.2578 19.9062C15.2578 21.1124 16.2391 22.0938 17.4453 22.0938H20.0156C21.2218 22.0938 22.2031 21.1124 22.2031 19.9062V17.3359C22.2031 16.1298 21.2218 15.1484 20.0156 15.1484H17.4453C16.2391 15.1484 15.2578 16.1298 15.2578 17.3359V19.9062ZM17.4453 17.3359H20.0156L20.017 19.9062C20.017 19.9062 20.0166 19.9062 20.0156 19.9062H17.4453V17.3359Z" fill="#66C0F9"/>
<path d="M21.1094 12.5781C21.7134 12.5781 22.2031 12.0884 22.2031 11.4844C22.2031 10.8803 21.7134 10.3906 21.1094 10.3906C20.5053 10.3906 20.0156 10.8803 20.0156 11.4844C20.0156 12.0884 20.5053 12.5781 21.1094 12.5781Z" fill="#66C0F9"/>
<path d="M16.3516 12.5781C16.9556 12.5781 17.4453 12.0884 17.4453 11.4844C17.4453 10.8803 16.9556 10.3906 16.3516 10.3906C15.7475 10.3906 15.2578 10.8803 15.2578 11.4844C15.2578 12.0884 15.7475 12.5781 16.3516 12.5781Z" fill="#66C0F9"/>
<path d="M26.9062 19.25C27.5103 19.25 28 18.7603 28 18.1562V6.5625C28 4.15013 26.0374 2.1875 23.625 2.1875H22.2031V1.09375C22.2031 0.489672 21.7135 0 21.1094 0C20.5053 0 20.0156 0.489672 20.0156 1.09375V2.1875H15.0391V1.09375C15.0391 0.489672 14.5494 0 13.9453 0C13.3412 0 12.8516 0.489672 12.8516 1.09375V2.1875H7.92969V1.09375C7.92969 0.489672 7.44002 0 6.83594 0C6.23186 0 5.74219 0.489672 5.74219 1.09375V2.1875H4.375C1.96263 2.1875 0 4.15013 0 6.5625V23.625C0 26.0374 1.96263 28 4.375 28H23.625C26.0374 28 28 26.0374 28 23.625C28 23.0209 27.5103 22.5312 26.9062 22.5312C26.3022 22.5312 25.8125 23.0209 25.8125 23.625C25.8125 24.8312 24.8312 25.8125 23.625 25.8125H4.375C3.16881 25.8125 2.1875 24.8312 2.1875 23.625V6.5625C2.1875 5.35631 3.16881 4.375 4.375 4.375H5.74219V5.46875C5.74219 6.07283 6.23186 6.5625 6.83594 6.5625C7.44002 6.5625 7.92969 6.07283 7.92969 5.46875V4.375H12.8516V5.46875C12.8516 6.07283 13.3412 6.5625 13.9453 6.5625C14.5494 6.5625 15.0391 6.07283 15.0391 5.46875V4.375H20.0156V5.46875C20.0156 6.07283 20.5053 6.5625 21.1094 6.5625C21.7135 6.5625 22.2031 6.07283 22.2031 5.46875V4.375H23.625C24.8312 4.375 25.8125 5.35631 25.8125 6.5625V18.1562C25.8125 18.7603 26.3022 19.25 26.9062 19.25Z" fill="#66C0F9"/>
<path d="M6.83594 22.0938C7.44 22.0938 7.92969 21.6041 7.92969 21C7.92969 20.3959 7.44 19.9062 6.83594 19.9062C6.23188 19.9062 5.74219 20.3959 5.74219 21C5.74219 21.6041 6.23188 22.0938 6.83594 22.0938Z" fill="#66C0F9"/>
<path d="M6.83594 12.5781C7.44 12.5781 7.92969 12.0884 7.92969 11.4844C7.92969 10.8803 7.44 10.3906 6.83594 10.3906C6.23188 10.3906 5.74219 10.8803 5.74219 11.4844C5.74219 12.0884 6.23188 12.5781 6.83594 12.5781Z" fill="#66C0F9"/>
<path d="M6.83594 17.3359C7.44 17.3359 7.92969 16.8462 7.92969 16.2422C7.92969 15.6381 7.44 15.1484 6.83594 15.1484C6.23188 15.1484 5.74219 15.6381 5.74219 16.2422C5.74219 16.8462 6.23188 17.3359 6.83594 17.3359Z" fill="#66C0F9"/>
<path d="M11.5938 17.3359C12.1978 17.3359 12.6875 16.8462 12.6875 16.2422C12.6875 15.6381 12.1978 15.1484 11.5938 15.1484C10.9897 15.1484 10.5 15.6381 10.5 16.2422C10.5 16.8462 10.9897 17.3359 11.5938 17.3359Z" fill="#66C0F9"/>
<path d="M11.5938 12.5781C12.1978 12.5781 12.6875 12.0884 12.6875 11.4844C12.6875 10.8803 12.1978 10.3906 11.5938 10.3906C10.9897 10.3906 10.5 10.8803 10.5 11.4844C10.5 12.0884 10.9897 12.5781 11.5938 12.5781Z" fill="#66C0F9"/>
<path d="M11.5938 22.0938C12.1978 22.0938 12.6875 21.6041 12.6875 21C12.6875 20.3959 12.1978 19.9062 11.5938 19.9062C10.9897 19.9062 10.5 20.3959 10.5 21C10.5 21.6041 10.9897 22.0938 11.5938 22.0938Z" fill="#66C0F9"/>
</svg>
