<?xml version="1.0" encoding="utf-8"?>
<!DOCTYPE svg PUBLIC "-//W3C//DTD SVG 1.1//EN" "http://www.w3.org/Graphics/SVG/1.1/DTD/svg11.dtd">
<svg version="1.1" id="Layer_1" xmlns="http://www.w3.org/2000/svg" xmlns:xlink="http://www.w3.org/1999/xlink" x="0px" y="0px"
	 width="20px" height="12px" viewBox="0 0 20 12" enable-background="new 0 0 20 12" xml:space="preserve">
<g id="Web-_x2F_-Modals">
	<g id="Web-_x2F_-Modal-_x2F_-Transfer-Ownership" transform="translate(-670.000000, -249.000000)">
		<g id="Content" transform="translate(325.000000, 100.000000)">
			<g id="Search" transform="translate(12.000000, 130.000000)">
				<g id="Icon" transform="translate(333.000000, 19.000000)">
					<g id="Path" transform="translate(10.000000, 6.000000) rotate(90.000000) translate(-10.000000, -6.000000) ">
					</g>
					<defs>
						<filter id="Adobe_OpacityMaskFilter" filterUnits="userSpaceOnUse" x="0" y="-4" width="20" height="20">
							<feColorMatrix  type="matrix" values="1 0 0 0 0  0 1 0 0 0  0 0 1 0 0  0 0 0 1 0"/>
						</filter>
					</defs>
					<mask maskUnits="userSpaceOnUse" x="0" y="-4" width="20" height="20" id="mask-2">
						<g filter="url(#Adobe_OpacityMaskFilter)">
							<path  id="path-1" fill="#FFFFFF" d="M0,1.234C0,0.994,0.193,0.801,0.434,0.8c0.116,0,0.227,0.046,0.309,0.128L10,10.154
								l9.257-9.227c0.17-0.17,0.446-0.17,0.616,0c0.17,0.169,0.17,0.443,0,0.613l-9.565,9.532c-0.17,0.169-0.445,0.169-0.615,0
								L0.128,1.541C0.046,1.459,0,1.35,0,1.234z"/>
						</g>
					</mask>
					<g id="Color" mask="url(#mask-2)">
						<g transform="translate(0.000000, -4.000000)">
							<rect fill="#66C0F9" width="20" height="20"/>
						</g>
					</g>
				</g>
			</g>
		</g>
	</g>
</g>
</svg>
