<svg width="113" height="137" viewBox="0 0 113 137" fill="none" xmlns="http://www.w3.org/2000/svg">
<mask id="mask0" mask-type="alpha" maskUnits="userSpaceOnUse" x="0" y="0" width="113" height="137">
<rect width="113" height="137" fill="#C4C4C4"/>
</mask>
<g mask="url(#mask0)">
<path d="M246 -33.5C246 41.3346 192.05 102 125.5 102C58.9497 102 5 41.3346 5 -33.5C5 -108.335 58.9497 -169 125.5 -169C192.05 -169 246 -108.335 246 -33.5Z" fill="#66C0F9" fill-opacity="0.27"/>
<path d="M290 15.5C290 90.3346 236.05 151 169.5 151C102.95 151 49 90.3346 49 15.5C49 -59.3346 102.95 -120 169.5 -120C236.05 -120 290 -59.3346 290 15.5Z" fill="#55D6B3" fill-opacity="0.24"/>
</g>
</svg>
