<svg id="Capa_1" enable-background="new 0 0 512 512" height="512" viewBox="0 0 512 512" width="512" xmlns="http://www.w3.org/2000/svg"><g><path d="m256 0c-93.723 0-169.7 75.977-169.7 169.7v203.3c0 28.663 15.96 54.417 41.645 67.19 2.051 1.02 4.319 1.534 6.61 1.534l245.63-1.416c2.555-.012 5.065-.677 7.291-1.932 23.578-13.285 38.224-38.336 38.224-65.376v-203.3c0-93.723-75.977-169.7-169.7-169.7z" fill="#223743"/><path d="m425.7 169.7v203.3c0 27.04-14.65 52.09-38.22 65.38-2.23 1.25-4.74 1.92-7.3 1.93l-124.18.64v-440.95c93.72 0 169.7 75.98 169.7 169.7z" fill="#002a3b"/><path d="m129.85 398.71c.06-.01.11-.02.16-.02-.12.02-.16.02-.16.02z" fill="#ffccbd"/><path d="m362.97 403.91c-.51 21.5-10.35 39.76-38.29 41.71h-8.53c-33.22 0-60.15 26.93-60.15 60.15 0-16.61-6.73-31.65-17.62-42.53-10.88-10.89-25.92-17.62-42.53-17.62h-8.53c-24.38 0-42.41-17.7-38.37-40.54l18.85-11.46s9.856-1.32 18.912-2.535c4.964-.666 8.668-4.902 8.668-9.91v-24.505c36.18 27.161 85.662 26.99 121.24.11v24.394c0 5.009 3.701 9.245 8.666 9.911 5.966.8 12.327 1.65 18.904 2.535 5.61.75 18.78 10.29 18.78 10.29z" fill="#ffccbd"/><path d="m362.97 403.91c-.51 21.5-10.35 39.76-38.29 41.71h-8.53c-33.22 0-60.15 26.93-60.15 60.15v-128.78c21.42.04 42.77-6.72 60.62-20.21v24.394c0 5.009 3.701 9.245 8.666 9.911 5.966.8 12.327 1.65 18.904 2.535 5.61.75 18.78 10.29 18.78 10.29z" fill="#ffbda9"/><path d="m465.69 462.41v34.59c0 8.284-6.716 15-15 15h-389.38c-8.284 0-15-6.716-15-15v-34.59c0-30.05 22.23-55.47 52.02-59.47l36.37-4.88 14.245 7.016s-8.127 35.648 38.375 40.544h8.53c16.61 0 31.65 6.73 42.53 17.62 10.89 10.88 17.62 25.92 17.62 42.53 0-33.22 26.93-60.15 60.15-60.15h8.53c40.551-2.774 38.289-41.709 38.289-41.709l14.331-5.851 36.37 4.88c29.79 4 52.02 29.42 52.02 59.47z" fill="#d33165"/><path d="m465.69 462.41v34.59c0 8.28-6.72 15-15 15h-194.69v-6.23c0-33.22 26.93-60.15 60.15-60.15h8.53c40.55-2.77 38.29-41.71 38.29-41.71l14.33-5.85 36.37 4.88c29.79 4 52.02 29.42 52.02 59.47z" fill="#b6144a"/><path d="m324.68 460.62h-8.53c-24.9 0-45.15 20.25-45.15 45.15v6.23h-30v-6.23c0-24.95-20.2-45.15-45.15-45.15h-8.53c-34.23 0-58.25-31.09-52.62-62.56 3.384-.454 33.1-4.44 33.1-4.44-10.71 20.75 3.63 37 19.52 37 3.3.54 42.13-5.31 68.7 30.12 26.64-35.47 66.04-29.56 68.66-30.12 15.73 0 30.47-16.33 19.51-37l33.11 4.44c5.64 31.51-18.44 62.56-52.62 62.56z" fill="#ff78a4"/><path d="m324.68 460.62h-8.53c-24.9 0-45.15 20.25-45.15 45.15v6.23h-15v-51.29c0 .01.01.02.02.03 26.64-35.47 66.04-29.56 68.66-30.12 15.73 0 30.47-16.33 19.51-37l33.11 4.44c5.64 31.51-18.44 62.56-52.62 62.56z" fill="#d95983"/><path d="m256.002 85.77c0 30.411 24.81 55.153 55.305 55.153h12.45c27.497 0 48.051 25.274 42.513 52.157h9.76c18.905 0 34.772 15.083 35.372 33.623.634 19.652-15.061 35.917-34.751 35.917h-11.41v7.578c-.001 58.891-49.006 106.802-109.241 106.802-58.047 0-109.309-45.974-109.222-106.918l.024-7.461h-10.832c-18.993 0-34.863-15.159-35.376-33.792-.542-19.632 15.178-35.748 34.756-35.748h9.605c-5.543-26.932 15.07-52.16 42.515-52.16h13.53c30.328-.001 55.002-24.741 55.002-55.151z" fill="#ffddce"/><path d="m376.65 262.62h-11.41v7.58c0 58.89-49 106.8-109.24 106.8v-291.23c0 30.41 24.81 55.15 55.31 55.15h12.45c27.49 0 48.05 25.28 42.51 52.16h9.76c18.9 0 34.77 15.08 35.37 33.62.64 19.65-15.06 35.92-34.75 35.92z" fill="#ffccbd"/><path d="m290.607 287.95c-7.591-3.325-16.435.134-19.758 7.723-2.563 5.855-8.346 9.638-14.729 9.638-6.39 0-12.176-3.783-14.741-9.639-3.324-7.587-12.17-11.046-19.758-7.721-7.588 3.324-11.045 12.17-7.721 19.758 7.344 16.767 23.917 27.602 42.22 27.602 18.298 0 34.866-10.835 42.21-27.603 3.323-7.589-.135-16.435-7.723-19.758z" fill="#ffccbd"/><path d="m298.33 307.71c-7.34 16.77-23.91 27.6-42.21 27.6h-.01v-30h.01c6.38 0 12.17-3.78 14.73-9.64 3.32-7.59 12.17-11.05 19.76-7.72 7.59 3.32 11.04 12.17 7.72 19.76z" fill="#ffbda9"/></g></svg>