<svg width="185" height="185" viewBox="0 0 185 185" fill="none" xmlns="http://www.w3.org/2000/svg">
<path d="M176.328 11.5567H8.67188C3.89078 11.5567 0 15.4475 0 20.2286V170.553C0 172.151 1.29211 173.443 2.89062 173.443H182.109C183.708 173.443 185 172.151 185 170.553V20.2286C185 15.4475 181.109 11.5567 176.328 11.5567V11.5567ZM5.78125 28.9005H179.219V167.662H5.78125V28.9005ZM8.67188 17.338H11.6203C10.0247 17.338 8.74703 18.6301 8.74703 20.2286C8.74703 21.8271 10.0536 23.1192 11.6521 23.1192C13.2477 23.1192 14.5427 21.8271 14.5427 20.2286C14.5427 18.6301 13.2477 17.338 11.6521 17.338H20.2893C18.6937 17.338 17.416 18.6301 17.416 20.2286C17.416 21.8271 18.7226 23.1192 20.3211 23.1192C21.9167 23.1192 23.2117 21.8271 23.2117 20.2286C23.2117 18.6301 21.9167 17.338 20.3211 17.338H28.9698C27.3742 17.338 26.0966 18.6301 26.0966 20.2286C26.0966 21.8271 27.4031 23.1192 29.0016 23.1192C30.5973 23.1192 31.8923 21.8271 31.8923 20.2286C31.8923 18.6301 30.5973 17.338 29.0016 17.338H176.328C177.924 17.338 179.219 18.633 179.219 20.2286V23.1192H28.9987H20.3182H11.6492H5.78125V20.2286C5.78125 18.633 7.07625 17.338 8.67188 17.338V17.338Z" fill="#ECECEC"/>
<path d="M91.5 108C109.421 108 124 93.421 124 75.4989C124 57.5768 109.421 43 91.5 43C73.5795 43 59 57.579 59 75.4989C59 93.4188 73.5795 108 91.5 108ZM91.5 47.3332C107.031 47.3332 119.667 59.9688 119.667 75.4989C119.667 91.0312 107.031 103.667 91.5 103.667C75.9693 103.667 63.3333 91.0312 63.3333 75.4989C63.3333 59.9688 75.9693 47.3332 91.5 47.3332Z" fill="#66C0F9"/>
<path d="M117.085 147.436H67.9037C63.9175 147.436 60.6771 150.677 60.6771 154.663C60.6771 158.649 63.9175 161.889 67.9037 161.889H117.085C121.071 161.889 124.311 158.649 124.311 154.663C124.311 150.677 121.071 147.436 117.085 147.436ZM67.9037 156.108C67.1088 156.108 66.4584 155.458 66.4584 154.663C66.4584 153.868 67.1088 153.218 67.9037 153.218H117.085C117.88 153.218 118.53 153.868 118.53 154.663C118.53 155.458 117.88 156.108 117.085 156.108H67.9037Z" fill="#ECECEC"/>
<path d="M158.999 127.211H25.9896C24.3911 127.211 23.099 128.503 23.099 130.101C23.099 131.7 24.3911 132.992 25.9896 132.992H158.999C160.597 132.992 161.889 131.7 161.889 130.101C161.889 128.503 160.597 127.211 158.999 127.211Z" fill="#ECECEC"/>
<path d="M132.977 135.885H52.011C50.4125 135.885 49.1204 137.177 49.1204 138.776C49.1204 140.375 50.4125 141.667 52.011 141.667H132.977C134.576 141.667 135.868 140.375 135.868 138.776C135.868 137.177 134.576 135.885 132.977 135.885Z" fill="#ECECEC"/>
<path d="M85.4408 86.3873C85.8699 86.7951 86.4332 87 86.9965 87C87.5598 87 88.1232 86.7951 88.5523 86.3873L108.355 67.5699C109.215 66.7523 109.215 65.4308 108.355 64.6132C107.494 63.7956 106.104 63.7956 105.243 64.6132L86.9965 81.9522L79.7568 75.0726C78.8964 74.255 77.5057 74.255 76.6453 75.0726C75.7849 75.8902 75.7849 77.2118 76.6453 78.0294L85.4408 86.3873Z" fill="#66C0F9"/>
</svg>
